<svg width="1024" height="1024" xmlns="http://www.w3.org/2000/svg">
    <path style="fill:#38033b;fill-opacity:1" d="M528.536 156.699c-195.404.007-216.982.327-237.105 3.513-55.732 8.826-98.719 49.92-109.776 104.942-4.524 22.513-4.437 18.508-4.861 229-.412 204.503-.117 226.634 3.308 248.5 11.106 70.895 60.382 113.436 136.575 117.904 22.923 1.344 425.319.638 437.36-.768 23.921-2.792 38.953-6.833 54.546-14.662 38.327-19.243 62.582-51.63 70.816-94.564 4.66-24.295 4.637-23.13 4.637-245.91 0-233.617.316-221.679-6.576-248.971-10.57-41.854-45.408-77.67-88.424-90.908-25.784-7.935-30.584-8.084-260.5-8.076zM516.095 264.36c64.697.116 129.318.94 134.455 2.363 18.993 5.263 32.852 17.724 39.945 35.914 2.54 6.515 2.54 6.516 2.834 67.766.293 61.25.293 61.25-2.5 61.05-1.536-.109-5.998-.352-9.916-.54l-7.123-.342-.541-19.71c-.611-22.27-1.618-27.336-7.79-39.208-10.434-20.076-26.998-32.499-52.364-39.274-8.025-2.143-8.61-2.154-140.309-2.474l-132.25-.323.018-8.214c.06-27.743 15.456-48.637 40.627-55.131 5.444-1.405 70.217-1.994 134.914-1.877zm-59.559 84.793c143.5 0 143.5-.001 152.5 2.81 31.436 9.82 46.447 30.746 46.484 64.795l.016 13.608-7.75.66c-67.797 5.78-127.28 58.125-144.724 127.355-13.793 54.74 2.286 119.252 39.32 157.768l6.254 6.504-113.3-.08c-119.607-.084-118.296-.037-130.4-4.664-17.74-6.783-34.609-26.636-40.152-47.256-2.748-10.225-2.683-263.515.07-275.254 5.192-22.129 20.77-38.66 41.958-44.524 5.757-1.593 16.995-1.722 149.724-1.722zm212.881 117.162c80.61 1.575 142.521 73.457 127.586 156.803-.535 2.982-.366 3.122 9.603 8.035 25.783 12.704 26.928 28.41 2.684 36.804-5.64 1.953-19.703 7.442-31.25 12.198-28.33 11.667-29.27 11.731-37.809 2.603-4.3-4.598-4.88-6-13.713-33.203-13.41-41.305-13.315-40.629-6.685-47.736 7.486-8.026 13.615-7.955 28.853.334 6.573 3.575 12.442 6.5 13.043 6.5 1.888 0 .338-24.266-2.171-34-22.402-86.881-148.511-94.352-181.975-10.78-26.727 66.748 21.658 135.724 95.242 135.774 13.766.009 20.498 4.73 21.492 15.076.96 9.987-2.35 16.465-10.24 20.049-10.403 4.726-43.37 1.326-63.344-6.533-55.063-21.665-88.786-73.093-86.898-132.524 2.05-64.544 47.687-117.455 110.03-127.566 8.674-1.407 17.213-1.997 25.552-1.834z" transform="translate(12.406 13.937)"/>
</svg>
