<?xml version="1.0" encoding="UTF-8" standalone="no"?>
<svg
   width="1024"
   height="1024"
   version="1.1"
   id="svg4"
   sodipodi:docname="icon-light.svg"
   inkscape:version="1.1.2 (0a00cf5339, 2022-02-04)"
   xmlns:inkscape="http://www.inkscape.org/namespaces/inkscape"
   xmlns:sodipodi="http://sodipodi.sourceforge.net/DTD/sodipodi-0.dtd"
   xmlns="http://www.w3.org/2000/svg"
   xmlns:svg="http://www.w3.org/2000/svg">
  <defs
     id="defs8" />
  <sodipodi:namedview
     id="namedview6"
     pagecolor="#ffffff"
     bordercolor="#666666"
     borderopacity="1.0"
     inkscape:pageshadow="2"
     inkscape:pageopacity="0.0"
     inkscape:pagecheckerboard="0"
     showgrid="false"
     inkscape:zoom="1.8711425"
     inkscape:cx="456.94008"
     inkscape:cy="420.59864"
     inkscape:window-width="1920"
     inkscape:window-height="1144"
     inkscape:window-x="0"
     inkscape:window-y="0"
     inkscape:window-maximized="1"
     inkscape:current-layer="svg4" />
  <path
     style="fill:#e7e7e7;fill-opacity:1;stroke:none;stroke-width:1.81463;stroke-miterlimit:4;stroke-dasharray:none"
     d="m 465.28414,93.316828 c 115.36533,0.214296 230.59515,1.736434 239.75526,4.365131 33.86765,9.722261 58.5805,32.741301 71.22849,66.343411 4.52921,12.03506 4.52921,12.03689 5.05347,125.18314 0.52247,113.14625 3.39505,113.47401 -1.58533,113.10455 -2.73892,-0.20135 -13.56798,-0.97799 -20.55442,-1.3253 l -12.70148,-0.63177 -0.96469,-36.40999 c -1.08952,-41.13905 -2.88516,-50.4974 -13.89085,-72.42837 -18.60553,-37.0861 -48.14185,-60.03495 -93.37357,-72.5503 -14.3099,-3.95872 -15.35305,-3.97904 -250.19391,-4.57017 l -235.8234,-0.59669 0.0321,-15.1736 c 0.107,-51.24923 27.5606,-89.84641 72.44459,-101.842699 9.70755,-2.59542 125.20841,-3.683477 240.57375,-3.467343 z M 359.08069,249.95371 c 255.88399,0 255.88399,-0.001 271.93246,5.19086 56.05552,18.14036 82.8226,56.79665 82.88858,119.69486 l 0.0286,25.13787 -13.81954,1.21919 c -120.89315,10.67733 -226.96106,107.3735 -258.06658,235.26106 -24.59518,101.12041 4.07632,220.29248 70.11401,291.44253 l 11.15191,12.01474 -202.03244,-0.1478 C 107.99882,939.61187 110.33654,939.69874 88.753121,931.1513 57.119805,918.62117 27.039635,881.94702 17.155545,843.85597 12.255414,824.96749 12.371332,357.06856 17.280378,335.38326 c 9.258186,-40.87859 37.036303,-71.41606 74.817966,-82.24852 10.265676,-2.94275 30.304876,-3.18103 266.982396,-3.18103 z m 379.60166,216.43165 c 143.74084,2.90948 254.13826,135.69605 227.50671,289.65989 -0.95399,5.50862 -0.65263,5.76724 17.12372,14.84295 45.97532,23.46792 48.01702,52.48138 4.78604,67.98751 -10.05706,3.60774 -35.13368,13.74749 -55.7239,22.53317 -50.51701,21.5523 -52.19318,21.67052 -67.41961,4.80849 -7.6676,-8.49381 -8.70183,-11.08371 -24.45252,-61.33542 -23.91225,-76.30212 -23.74283,-75.05336 -11.92046,-88.18202 13.34877,-14.8263 24.27778,-14.69515 51.44962,0.61699 11.72074,6.60405 22.18612,12.00736 23.25781,12.00736 3.36662,0 0.6027,-44.82622 -3.87123,-62.8077 C 859.47207,506.02257 634.5991,492.22151 574.9273,646.60284 c -47.65862,123.30262 38.61976,250.72098 169.83209,250.81334 24.54703,0.0167 36.55128,8.73765 38.32374,27.84969 1.71183,18.44883 -4.19044,30.41554 -18.25959,37.03621 -18.55026,8.73028 -77.33582,2.4495 -112.95272,-12.06833 C 553.68448,910.21234 493.55087,815.21014 496.91747,705.4241 500.57295,586.1929 581.9512,488.45118 693.11896,469.77328 c 15.46716,-2.59913 30.69359,-3.68902 45.56339,-3.38792 z"
     id="path2"
     sodipodi:nodetypes="scccccccccccccsscccccscccccccscccccccccscccccccccc" />
</svg>
